<svg width="9" height="15" viewBox="0 0 9 15" fill="none" xmlns="http://www.w3.org/2000/svg">
<g clip-path="url(#clip0_186_148)">
<path d="M9 7.5C9 7.37349 8.9746 7.25452 8.92381 7.14307C8.87302 7.03163 8.79683 6.92771 8.69524 6.83133L1.60952 0.262048C1.43175 0.0873494 1.2127 0 0.952381 0C0.768254 0 0.606349 0.0391566 0.466667 0.11747C0.326984 0.195783 0.214286 0.301205 0.128571 0.433735C0.0428571 0.566265 0 0.71988 0 0.894578C0 1.13554 0.0952381 1.34639 0.285714 1.52711L6.72381 7.5L0.285714 13.4729C0.0952381 13.6536 0 13.8645 0 14.1054C0 14.2741 0.0428571 14.4262 0.128571 14.5617C0.214286 14.6973 0.326984 14.8042 0.466667 14.8825C0.606349 14.9608 0.768254 15 0.952381 15C1.2127 15 1.43175 14.9127 1.60952 14.738L8.69524 8.16867C8.80317 8.07229 8.88095 7.96837 8.92857 7.85693C8.97619 7.74548 9 7.62651 9 7.5Z" fill="white"/>
</g>
<defs>
<clipPath id="clip0_186_148">
<rect width="9" height="15" fill="white"/>
</clipPath>
</defs>
</svg>
