<?xml version="1.0" encoding="UTF-8"?>
<svg width="26px" height="32px" viewBox="0 0 26 32" version="1.1" xmlns="http://www.w3.org/2000/svg" xmlns:xlink="http://www.w3.org/1999/xlink">
    <title>􀊄</title>
    <g id="Page-1" stroke="none" stroke-width="1" fill="none" fill-rule="evenodd">
        <g id="􀊄" fill="#FFFFFF" fill-rule="nonzero">
            <path d="M2.19846066,32 C2.54342669,32 2.87490294,31.9335813 3.19288942,31.800744 C3.5108759,31.6679066 3.8546325,31.4826603 4.22415922,31.2450052 L24.0223064,18.6407946 C24.7494516,18.1867546 25.2608535,17.7681993 25.5565121,17.3851287 C25.8521707,17.002058 26,16.5403485 26,16 C26,15.4715139 25.8521707,15.0127699 25.5565121,14.6237681 C25.2608535,14.2347663 24.7494516,13.8132454 24.0223064,13.3592054 L4.22415922,0.756835526 C3.8546325,0.519180376 3.5108759,0.333627334 3.19288942,0.200176401 C2.87490294,0.0667254669 2.54342669,0 2.19846066,0 C1.53625242,0 1.00429025,0.256368959 0.602574149,0.769106876 C0.20085805,1.28184479 0,1.97313086 0,2.84296506 L0,29.1591824 C0,30.027585 0.20085805,30.7181552 0.602574149,31.2308931 C1.00429025,31.743631 1.53625242,32 2.19846066,32 Z" id="Path"></path>
        </g>
    </g>
</svg>