<svg width="24" height="19" viewBox="0 0 24 19" fill="none" xmlns="http://www.w3.org/2000/svg">
<g opacity="0.8" clip-path="url(#clip0_353_38)">
<path d="M0 14.7293C0 15.0039 0.0969069 15.229 0.290721 15.4048C0.484535 15.5806 0.729526 15.6685 1.02569 15.6685H3.40481C4.27356 15.6685 4.99766 15.5257 5.57713 15.2401C6.15659 14.9545 6.75322 14.4577 7.36701 13.7497L13.636 6.42896C13.9272 6.08638 14.2119 5.81185 14.4901 5.60538C14.7684 5.3989 15.0608 5.24885 15.3674 5.15522C15.674 5.06159 16.0208 5.01477 16.4077 5.01477H18.482V7.28792C18.482 7.51675 18.5461 7.69334 18.6742 7.81767C18.8024 7.94201 18.9814 8.00417 19.2113 8.00417C19.3149 8.00417 19.4149 7.98664 19.5111 7.95156C19.6074 7.91648 19.6941 7.86494 19.7712 7.79691L23.7304 4.5357C23.9105 4.387 24.0003 4.21201 24 4.01074C23.9997 3.80948 23.9098 3.63158 23.7304 3.47704L19.7712 0.207261C19.6941 0.145738 19.6074 0.0958141 19.5111 0.0574884C19.4149 0.0191628 19.3149 0 19.2113 0C18.9814 0 18.8024 0.0621671 18.6742 0.186501C18.5461 0.310835 18.482 0.487363 18.482 0.716084V3.14724H16.3881C15.5053 3.14724 14.7608 3.28962 14.1546 3.57437C13.5484 3.85912 12.9277 4.37282 12.2926 5.11546L6.08879 12.3738C5.64866 12.8937 5.22552 13.2598 4.81938 13.4723C4.41323 13.6848 3.93448 13.791 3.38313 13.791H1.02569C0.729526 13.791 0.484535 13.8789 0.290721 14.0547C0.0969069 14.2306 0 14.4554 0 14.7293ZM0 4.08538C0 4.35926 0.0969069 4.58426 0.290721 4.76036C0.484535 4.93647 0.729526 5.02452 1.02569 5.02452H3.34875C3.90642 5.02452 4.39429 5.13079 4.81235 5.34332C5.2304 5.55584 5.65589 5.92198 6.08879 6.44173L12.3249 13.7258C12.9434 14.4527 13.5574 14.9583 14.1672 15.2423C14.7769 15.5264 15.5161 15.6685 16.3849 15.6685H18.482V18.1516C18.482 18.3803 18.5461 18.5552 18.6742 18.6763C18.8024 18.7974 18.9814 18.8579 19.2113 18.8579C19.3149 18.8579 19.4149 18.8404 19.5111 18.8054C19.6074 18.7703 19.6941 18.7221 19.7712 18.6605L23.7304 15.3993C23.9105 15.2513 24.0003 15.0765 24 14.8749C23.9997 14.6733 23.9098 14.4952 23.7304 14.3407L19.7712 11.0707C19.6941 11.0027 19.6074 10.9512 19.5111 10.9162C19.4149 10.8811 19.3149 10.8636 19.2113 10.8636C18.9814 10.8636 18.8024 10.9258 18.6742 11.0501C18.5461 11.1745 18.482 11.351 18.482 11.5797V13.8008H16.438C15.8542 13.8008 15.3505 13.6926 14.9271 13.4762C14.5037 13.2598 14.0719 12.892 13.6318 12.3728L7.36701 5.06588C6.75322 4.3573 6.15084 3.86038 5.55985 3.57513C4.96887 3.28987 4.23901 3.14724 3.37026 3.14724H1.02569C0.729526 3.14724 0.484535 3.2335 0.290721 3.40602C0.0969069 3.57854 0 3.805 0 4.08538Z" fill="white"/>
</g>
<defs>
<clipPath id="clip0_353_38">
<rect width="24" height="18.8571" fill="white"/>
</clipPath>
</defs>
</svg>
